<svg width="34" height="38" viewBox="0 0 34 38" fill="none" xmlns="http://www.w3.org/2000/svg">
<g filter="url(#filter0_d_2_6)">
<path d="M16.9999 34.6666C16.611 34.6666 16.2777 34.5555 15.9999 34.3333C15.7221 34.1111 15.5138 33.8194 15.3749 33.4583C14.8471 31.9028 14.1805 30.4444 13.3749 29.0833C12.5971 27.7222 11.4999 26.125 10.0833 24.2916C8.66659 22.4583 7.51381 20.7083 6.62492 19.0416C5.76381 17.375 5.33325 15.3611 5.33325 13C5.33325 9.74998 6.45825 6.99998 8.70825 4.74998C10.986 2.4722 13.7499 1.33331 16.9999 1.33331C20.2499 1.33331 22.9999 2.4722 25.2499 4.74998C27.5277 6.99998 28.6666 9.74998 28.6666 13C28.6666 15.5278 28.1805 17.6389 27.2083 19.3333C26.2638 21 25.1666 22.6528 23.9166 24.2916C22.4166 26.2916 21.2777 27.9583 20.4999 29.2916C19.7499 30.5972 19.1249 31.9861 18.6249 33.4583C18.486 33.8472 18.2638 34.1528 17.9583 34.375C17.6805 34.5694 17.361 34.6666 16.9999 34.6666ZM16.9999 28.7083C17.4721 27.7639 17.9999 26.8333 18.5833 25.9166C19.1944 25 20.0833 23.7778 21.2499 22.25C22.4444 20.6944 23.4166 19.2639 24.1666 17.9583C24.9444 16.625 25.3333 14.9722 25.3333 13C25.3333 10.6944 24.5138 8.73609 22.8749 7.12498C21.2638 5.48609 19.3055 4.66665 16.9999 4.66665C14.6944 4.66665 12.7221 5.48609 11.0833 7.12498C9.47214 8.73609 8.66659 10.6944 8.66659 13C8.66659 14.9722 9.04159 16.625 9.79159 17.9583C10.5694 19.2639 11.5555 20.6944 12.7499 22.25C13.9166 23.7778 14.7916 25 15.3749 25.9166C15.986 26.8333 16.5277 27.7639 16.9999 28.7083ZM16.9999 17.1666C18.1666 17.1666 19.1527 16.7639 19.9583 15.9583C20.7638 15.1528 21.1666 14.1666 21.1666 13C21.1666 11.8333 20.7638 10.8472 19.9583 10.0416C19.1527 9.23609 18.1666 8.83331 16.9999 8.83331C15.8333 8.83331 14.8471 9.23609 14.0416 10.0416C13.236 10.8472 12.8333 11.8333 12.8333 13C12.8333 14.1666 13.236 15.1528 14.0416 15.9583C14.8471 16.7639 15.8333 17.1666 16.9999 17.1666Z" fill="#FF9500"/>
<path d="M16.9999 34.6666C16.611 34.6666 16.2777 34.5555 15.9999 34.3333C15.7221 34.1111 15.5138 33.8194 15.3749 33.4583C14.8471 31.9028 14.1805 30.4444 13.3749 29.0833C12.5971 27.7222 11.4999 26.125 10.0833 24.2916C8.66659 22.4583 7.51381 20.7083 6.62492 19.0416C5.76381 17.375 5.33325 15.3611 5.33325 13C5.33325 9.74998 6.45825 6.99998 8.70825 4.74998C10.986 2.4722 13.7499 1.33331 16.9999 1.33331C20.2499 1.33331 22.9999 2.4722 25.2499 4.74998C27.5277 6.99998 28.6666 9.74998 28.6666 13C28.6666 15.5278 28.1805 17.6389 27.2083 19.3333C26.2638 21 25.1666 22.6528 23.9166 24.2916C22.4166 26.2916 21.2777 27.9583 20.4999 29.2916C19.7499 30.5972 19.1249 31.9861 18.6249 33.4583C18.486 33.8472 18.2638 34.1528 17.9583 34.375C17.6805 34.5694 17.361 34.6666 16.9999 34.6666ZM16.9999 28.7083C17.4721 27.7639 17.9999 26.8333 18.5833 25.9166C19.1944 25 20.0833 23.7778 21.2499 22.25C22.4444 20.6944 23.4166 19.2639 24.1666 17.9583C24.9444 16.625 25.3333 14.9722 25.3333 13C25.3333 10.6944 24.5138 8.73609 22.8749 7.12498C21.2638 5.48609 19.3055 4.66665 16.9999 4.66665C14.6944 4.66665 12.7221 5.48609 11.0833 7.12498C9.47214 8.73609 8.66659 10.6944 8.66659 13C8.66659 14.9722 9.04159 16.625 9.79159 17.9583C10.5694 19.2639 11.5555 20.6944 12.7499 22.25C13.9166 23.7778 14.7916 25 15.3749 25.9166C15.986 26.8333 16.5277 27.7639 16.9999 28.7083ZM16.9999 17.1666C18.1666 17.1666 19.1527 16.7639 19.9583 15.9583C20.7638 15.1528 21.1666 14.1666 21.1666 13C21.1666 11.8333 20.7638 10.8472 19.9583 10.0416C19.1527 9.23609 18.1666 8.83331 16.9999 8.83331C15.8333 8.83331 14.8471 9.23609 14.0416 10.0416C13.236 10.8472 12.8333 11.8333 12.8333 13C12.8333 14.1666 13.236 15.1528 14.0416 15.9583C14.8471 16.7639 15.8333 17.1666 16.9999 17.1666Z" stroke="#FF9500"/>
</g>
<defs>
<filter id="filter0_d_2_6" x="0.833252" y="0.833313" width="32.3333" height="42.3333" filterUnits="userSpaceOnUse" color-interpolation-filters="sRGB">
<feFlood flood-opacity="0" result="BackgroundImageFix"/>
<feColorMatrix in="SourceAlpha" type="matrix" values="0 0 0 0 0 0 0 0 0 0 0 0 0 0 0 0 0 0 127 0" result="hardAlpha"/>
<feOffset dy="4"/>
<feGaussianBlur stdDeviation="2"/>
<feComposite in2="hardAlpha" operator="out"/>
<feColorMatrix type="matrix" values="0 0 0 0 0 0 0 0 0 0 0 0 0 0 0 0 0 0 0.25 0"/>
<feBlend mode="normal" in2="BackgroundImageFix" result="effect1_dropShadow_2_6"/>
<feBlend mode="normal" in="SourceGraphic" in2="effect1_dropShadow_2_6" result="shape"/>
</filter>
</defs>
</svg>
